<svg version="1.1" id="Layer_1" xmlns="http://www.w3.org/2000/svg" xmlns:xlink="http://www.w3.org/1999/xlink" x="0px" y="0px"
	 width="120%" viewBox="0 0 451 451" enable-background="new 0 0 451 451" xml:space="preserve">
<path fill="#000" opacity="0.000001" stroke="none" 
	d="
M310.000000,452.000000 
	C206.695145,452.000000 103.890297,452.000000 1.042725,452.000000 
	C1.042725,301.736786 1.042725,151.473587 1.042725,1.105184 
	C151.221497,1.105184 301.443115,1.105184 451.832336,1.105184 
	C451.832336,151.333176 451.832336,301.666565 451.832336,452.000000 
	C404.806915,452.000000 357.653442,452.000000 310.000000,452.000000 
M156.120514,363.355438 
	C174.964417,372.614014 194.789322,377.830566 215.898865,378.431946 
	C215.898865,364.927460 215.898865,351.999176 215.898865,339.091400 
	C159.753891,335.544403 115.301941,290.258331 113.598854,233.955902 
	C112.855583,209.384079 119.689224,186.890244 134.341507,167.093811 
	C154.612366,139.706192 182.163788,125.187225 215.894958,122.486893 
	C215.894958,109.180901 215.894958,96.258949 215.894958,83.185265 
	C214.997757,83.109970 214.358307,82.998566 213.721985,83.014145 
	C212.057831,83.054863 210.386398,83.067383 208.732925,83.237434 
	C170.777023,87.141029 138.312454,102.539703 112.683380,130.882050 
	C81.103134,165.805573 68.448929,207.147018 75.780067,253.600906 
	C83.621170,303.286194 111.089394,339.518005 156.120514,363.355438 
M278.781219,367.287384 
	C313.455933,352.512848 339.051147,328.119263 355.445007,294.246460 
	C364.114044,276.334564 368.955750,257.392822 369.374390,237.358978 
	C355.834869,237.358978 343.037476,237.358978 330.542816,237.358978 
	C321.700073,296.864502 287.744171,330.754486 228.462677,339.485291 
	C228.462677,352.251465 228.462677,365.163269 228.462677,378.390442 
	C245.917648,377.918823 262.261719,373.962250 278.781219,367.287384 
M303.229309,159.401489 
	C319.298279,178.181564 328.155731,199.980042 329.967896,224.479706 
	C343.377258,224.479706 356.269958,224.479706 369.620575,224.479706 
	C367.755493,188.544357 354.945343,157.675446 331.449646,131.308716 
	C321.883270,140.629166 312.601929,149.671890 303.229309,159.401489 
M151.718613,241.059219 
	C153.991562,241.373001 156.264160,241.957352 158.537537,241.960419 
	C199.369049,242.015656 240.200668,242.000610 281.032257,242.000595 
	C294.543854,242.000580 294.715729,241.827637 294.554352,228.398804 
	C294.469543,221.343491 293.006805,219.843750 286.073669,219.841629 
	C255.741623,219.832367 225.409576,219.837570 195.077530,219.837601 
	C182.244736,219.837616 169.408768,219.691803 156.582108,219.972397 
	C154.271973,220.022934 150.337006,221.444733 150.002686,222.891953 
	C148.654312,228.728561 147.304474,234.905197 151.718613,241.059219 
M247.499985,193.860001 
	C252.998001,193.860001 258.496033,193.860001 263.994049,193.860001 
	C277.193604,193.860016 277.193604,193.860031 277.180206,180.542267 
	C277.172150,172.532516 276.051849,171.420975 267.862091,171.419144 
	C238.372726,171.412567 208.883347,171.416565 179.393982,171.416565 
	C165.940613,171.416565 165.935760,171.421341 165.985291,184.650299 
	C166.012894,192.026428 167.779678,193.851624 175.025742,193.855377 
	C198.850479,193.867706 222.675232,193.859970 247.499985,193.860001 
M197.500000,289.999939 
	C219.473740,289.999939 241.447495,289.999939 263.421234,289.999939 
	C277.190918,289.999939 277.190887,289.999939 277.161316,276.352295 
	C277.145264,268.950256 276.013947,267.842712 268.354706,267.841125 
	C238.889923,267.835083 209.425125,267.838654 179.960342,267.838654 
	C165.721786,267.838654 165.619843,267.944916 166.001022,282.390564 
	C166.146225,287.893433 168.111694,289.943024 173.527557,289.984711 
	C181.184631,290.043610 188.842484,289.999817 197.500000,289.999939 
M261.027283,109.554649 
	C259.427856,115.605560 257.828400,121.656464 256.528290,126.574966 
	C269.643768,134.232666 282.172638,141.547852 294.122406,148.524918 
	C302.802948,139.895889 312.051880,130.701874 321.450500,121.359047 
	C305.798279,107.042549 287.549683,96.348450 266.465424,89.678589 
	C264.628937,96.323250 262.911255,102.538063 261.027283,109.554649 
M242.337341,84.078491 
	C237.779724,83.672623 233.222107,83.266762 228.098709,82.810509 
	C228.098709,90.085892 228.098709,96.545303 228.098709,103.004715 
	C228.098709,109.454697 228.098709,115.904671 228.098709,122.495453 
	C233.703766,123.222488 238.731064,123.874573 244.124054,124.574097 
	C247.304535,112.773247 250.423019,101.233810 253.510834,89.686165 
	C253.760239,88.753487 253.799011,87.764488 254.001968,86.334305 
	C250.301773,85.584709 246.759171,84.867027 242.337341,84.078491 
z"/>
<path fill="#2A2A6A" opacity="1.000000" stroke="none" 
	d="
M155.780075,363.202484 
	C111.089394,339.518005 83.621170,303.286194 75.780067,253.600906 
	C68.448929,207.147018 81.103134,165.805573 112.683380,130.882050 
	C138.312454,102.539703 170.777023,87.141029 208.732925,83.237434 
	C210.386398,83.067383 212.057831,83.054863 213.721985,83.014145 
	C214.358307,82.998566 214.997757,83.109970 215.894958,83.185265 
	C215.894958,96.258949 215.894958,109.180901 215.894958,122.486893 
	C182.163788,125.187225 154.612366,139.706192 134.341507,167.093811 
	C119.689224,186.890244 112.855583,209.384079 113.598854,233.955902 
	C115.301941,290.258331 159.753891,335.544403 215.898865,339.091400 
	C215.898865,351.999176 215.898865,364.927460 215.898865,378.431946 
	C194.789322,377.830566 174.964417,372.614014 155.780075,363.202484 
z"/>
<path fill="#363D8E" opacity="1.000000" stroke="none" 
	d="
M278.446350,367.474915 
	C262.261719,373.962250 245.917648,377.918823 228.462677,378.390442 
	C228.462677,365.163269 228.462677,352.251465 228.462677,339.485291 
	C287.744171,330.754486 321.700073,296.864502 330.542816,237.358978 
	C343.037476,237.358978 355.834869,237.358978 369.374390,237.358978 
	C368.955750,257.392822 364.114044,276.334564 355.445007,294.246460 
	C339.051147,328.119263 313.455933,352.512848 278.446350,367.474915 
z"/>
<path fill="#37488F" opacity="1.000000" stroke="none" 
	d="
M303.274963,159.058044 
	C312.601929,149.671890 321.883270,140.629166 331.449646,131.308716 
	C354.945343,157.675446 367.755493,188.544357 369.620575,224.479706 
	C356.269958,224.479706 343.377258,224.479706 329.967896,224.479706 
	C328.155731,199.980042 319.298279,178.181564 303.274963,159.058044 
z"/>
<path fill="#35478E" opacity="1.000000" stroke="none" 
	d="
M151.366364,240.822113 
	C147.304474,234.905197 148.654312,228.728561 150.002686,222.891953 
	C150.337006,221.444733 154.271973,220.022934 156.582108,219.972397 
	C169.408768,219.691803 182.244736,219.837616 195.077530,219.837601 
	C225.409576,219.837570 255.741623,219.832367 286.073669,219.841629 
	C293.006805,219.843750 294.469543,221.343491 294.554352,228.398804 
	C294.715729,241.827637 294.543854,242.000580 281.032257,242.000595 
	C240.200668,242.000610 199.369049,242.015656 158.537537,241.960419 
	C156.264160,241.957352 153.991562,241.373001 151.366364,240.822113 
z"/>
<path fill="#3A4C92" opacity="1.000000" stroke="none" 
	d="
M246.999969,193.859985 
	C222.675232,193.859970 198.850479,193.867706 175.025742,193.855377 
	C167.779678,193.851624 166.012894,192.026428 165.985291,184.650299 
	C165.935760,171.421341 165.940613,171.416565 179.393982,171.416565 
	C208.883347,171.416565 238.372726,171.412567 267.862091,171.419144 
	C276.051849,171.420975 277.172150,172.532516 277.180206,180.542267 
	C277.193604,193.860031 277.193604,193.860016 263.994049,193.860001 
	C258.496033,193.860001 252.998001,193.860001 246.999969,193.859985 
z"/>
<path fill="#34468E" opacity="1.000000" stroke="none" 
	d="
M197.000000,289.999939 
	C188.842484,289.999817 181.184631,290.043610 173.527557,289.984711 
	C168.111694,289.943024 166.146225,287.893433 166.001022,282.390564 
	C165.619843,267.944916 165.721786,267.838654 179.960342,267.838654 
	C209.425125,267.838654 238.889923,267.835083 268.354706,267.841125 
	C276.013947,267.842712 277.145264,268.950256 277.161316,276.352295 
	C277.190887,289.999939 277.190918,289.999939 263.421234,289.999939 
	C241.447495,289.999939 219.473740,289.999939 197.000000,289.999939 
z"/>
<path fill="#5478C9" opacity="1.000000" stroke="none" 
	d="
M261.110413,109.153763 
	C262.911255,102.538063 264.628937,96.323250 266.465424,89.678589 
	C287.549683,96.348450 305.798279,107.042549 321.450500,121.359047 
	C312.051880,130.701874 302.802948,139.895889 294.122406,148.524918 
	C282.172638,141.547852 269.643768,134.232666 256.528290,126.574966 
	C257.828400,121.656464 259.427856,115.605560 261.110413,109.153763 
z"/>
<path fill="#7CA9D0" opacity="1.000000" stroke="none" 
	d="
M242.776947,84.113922 
	C246.759171,84.867027 250.301773,85.584709 254.001968,86.334305 
	C253.799011,87.764488 253.760239,88.753487 253.510834,89.686165 
	C250.423019,101.233810 247.304535,112.773247 244.124054,124.574097 
	C238.731064,123.874573 233.703766,123.222488 228.098709,122.495453 
	C228.098709,115.904671 228.098709,109.454697 228.098709,103.004715 
	C228.098709,96.545303 228.098709,90.085892 228.098709,82.810509 
	C233.222107,83.266762 237.779724,83.672623 242.776947,84.113922 
z"/>
</svg>